<?xml version="1.0" standalone="no"?>
<!DOCTYPE svg PUBLIC "-//W3C//DTD SVG 20010904//EN"
 "http://www.w3.org/TR/2001/REC-SVG-20010904/DTD/svg10.dtd">
<svg version="1.0" xmlns="http://www.w3.org/2000/svg"
 width="1536.000000pt" height="1024.000000pt" viewBox="0 0 1536.000000 1024.000000"
 preserveAspectRatio="xMidYMid meet">

<g transform="translate(0.000000,1024.000000) scale(0.100000,-0.100000)"
fill="#000000" stroke="none">
<path d="M0 5120 l0 -5120 7680 0 7680 0 0 5120 0 5120 -7680 0 -7680 0 0
-5120z m12620 2019 c63 -12 140 -25 170 -30 30 -4 73 -13 95 -19 167 -44 209
-63 365 -165 91 -60 190 -146 190 -165 0 -6 7 -10 16 -10 8 0 13 -4 10 -8 -3
-5 15 -30 39 -57 25 -26 45 -51 45 -56 0 -5 20 -42 45 -82 25 -41 45 -80 45
-86 0 -11 4 -20 31 -73 21 -40 27 -76 16 -87 -8 -8 -8 -11 1 -11 8 0 4 -14
-11 -36 -16 -26 -37 -42 -71 -56 -27 -10 -67 -27 -90 -37 -22 -10 -54 -23 -71
-29 -16 -6 -61 -22 -98 -37 -38 -14 -83 -29 -100 -31 -96 -17 -92 -17 -130 18
-22 20 -40 49 -47 75 -6 23 -15 45 -20 48 -5 3 -19 27 -31 53 -13 26 -37 62
-53 80 -67 72 -152 152 -162 152 -6 0 -22 8 -35 18 -29 22 -134 56 -148 48 -5
-3 -21 -2 -35 4 -38 14 -169 -6 -232 -36 -28 -13 -58 -24 -67 -24 -10 0 -16
-5 -15 -12 2 -7 -1 -12 -7 -13 -5 0 -38 -28 -71 -61 -42 -41 -64 -72 -69 -95
-4 -19 -11 -36 -15 -39 -13 -9 -18 -92 -8 -124 13 -41 49 -120 57 -126 3 -3
13 -18 21 -35 15 -29 153 -134 177 -135 6 0 18 -8 25 -17 7 -10 29 -26 48 -36
37 -19 120 -64 210 -116 30 -17 67 -36 83 -42 15 -6 27 -15 27 -21 0 -5 20
-18 45 -29 24 -11 47 -24 50 -29 4 -6 11 -8 16 -5 5 4 9 2 9 -4 0 -5 16 -15
35 -22 19 -7 35 -16 35 -20 0 -4 26 -21 58 -37 181 -93 268 -142 310 -172 63
-48 202 -188 202 -206 0 -8 6 -14 14 -14 7 0 19 -15 27 -32 7 -18 15 -35 18
-38 12 -11 74 -141 74 -155 0 -8 4 -15 9 -15 4 0 8 -8 8 -19 0 -10 7 -35 15
-56 9 -20 13 -45 10 -56 -4 -10 -2 -19 3 -19 5 0 9 -17 9 -37 1 -21 3 -66 5
-101 3 -34 2 -65 -1 -67 -3 -3 -6 -22 -7 -43 0 -20 -4 -44 -7 -52 -3 -8 -8
-33 -12 -55 -4 -22 -12 -53 -20 -70 -7 -16 -25 -61 -41 -100 -15 -38 -36 -78
-44 -88 -9 -9 -23 -30 -31 -45 -19 -36 -20 -38 -78 -102 -28 -30 -51 -58 -51
-62 0 -5 -6 -8 -14 -8 -8 0 -16 -6 -19 -12 -2 -7 -38 -35 -78 -63 -41 -27 -78
-55 -84 -61 -5 -6 -32 -20 -60 -30 -27 -10 -64 -25 -81 -35 -44 -24 -140 -50
-158 -43 -9 3 -22 1 -30 -5 -20 -17 -296 -55 -373 -52 -24 1 -52 -3 -63 -9
-11 -6 -25 -8 -30 -5 -5 3 -58 8 -117 10 -95 4 -142 9 -150 15 -4 3 -9 5 -48
14 -68 16 -113 31 -163 53 -29 13 -59 23 -66 23 -7 0 -30 11 -51 25 -20 14
-50 29 -66 32 -16 3 -29 9 -29 14 0 5 -7 9 -15 9 -8 0 -15 5 -15 10 0 6 -8 13
-17 17 -29 10 -137 99 -178 145 -20 24 -53 61 -72 83 -19 21 -44 56 -54 78
-11 21 -36 62 -55 92 -18 30 -34 61 -34 69 0 8 -4 18 -10 21 -5 3 -10 13 -10
21 0 8 -9 36 -21 61 -11 25 -18 51 -15 58 2 7 0 17 -6 23 -5 5 -10 34 -10 64
-1 43 5 63 27 96 42 64 102 92 227 107 24 3 58 10 77 15 19 5 37 7 40 5 2 -3
10 0 18 7 7 6 56 13 107 15 l94 4 41 -41 c22 -23 40 -44 39 -48 -6 -20 29
-127 65 -199 29 -59 57 -98 98 -138 32 -30 63 -55 69 -55 5 0 10 -4 10 -10 0
-5 6 -10 13 -10 7 0 23 -9 35 -20 61 -57 272 -89 432 -66 49 7 189 66 215 90
39 36 96 117 117 165 16 35 21 69 22 141 0 89 -2 99 -34 164 -25 49 -48 78
-80 102 -25 18 -63 47 -85 64 -22 17 -53 41 -70 53 -26 20 -150 81 -335 165
-30 13 -118 56 -195 94 -77 38 -160 77 -184 85 -25 8 -59 25 -76 37 -17 11
-56 37 -86 57 -30 20 -68 50 -85 65 -17 16 -49 43 -70 59 -58 45 -151 141
-178 183 -72 116 -116 215 -136 303 -46 202 -32 333 55 524 18 39 36 82 40 95
18 59 137 196 240 277 22 18 62 50 88 71 71 58 219 128 322 152 50 11 110 25
135 31 25 6 78 12 118 14 40 1 74 4 77 7 11 10 89 5 195 -13z m-6710 -84 c147
-10 470 -65 494 -84 6 -5 36 -14 66 -22 30 -7 62 -18 70 -25 8 -7 32 -19 53
-28 56 -23 148 -97 223 -181 64 -72 78 -91 106 -145 7 -14 15 -27 19 -30 6 -5
61 -183 64 -210 5 -36 19 -205 18 -210 -1 -3 -4 -42 -7 -88 -5 -81 -27 -181
-50 -233 -21 -47 -101 -159 -113 -159 -7 0 -13 -5 -13 -10 0 -16 -100 -106
-167 -149 -81 -52 -81 -53 42 -121 75 -42 186 -129 220 -174 15 -19 39 -57 53
-85 15 -27 40 -69 55 -94 15 -25 39 -89 53 -143 22 -84 26 -122 26 -244 1
-147 0 -152 -50 -321 -31 -104 -117 -264 -148 -276 -8 -3 -14 -11 -14 -19 0
-8 -7 -14 -15 -14 -8 0 -15 -4 -15 -9 0 -17 -158 -161 -176 -161 -17 0 -74
-30 -74 -40 0 -4 -15 -14 -32 -21 -18 -7 -42 -21 -52 -31 -13 -12 -22 -14 -27
-7 -4 8 -15 6 -36 -5 -17 -8 -33 -12 -37 -9 -3 4 -6 1 -6 -5 0 -6 -17 -14 -37
-17 -37 -6 -141 -24 -174 -30 -37 -7 -169 -16 -234 -16 -38 0 -302 2 -585 3
l-515 3 -55 28 c-39 20 -60 38 -70 60 -12 27 -15 144 -17 722 -1 658 -2 1204
-2 1290 1 22 0 42 0 45 -1 3 -1 88 -2 190 0 102 0 223 -1 270 -4 372 5 681 22
726 5 13 18 27 27 30 10 4 38 15 62 26 30 13 73 21 139 23 52 3 97 7 100 9 5
6 700 -2 812 -9z m4792 -25 c38 -24 46 -35 50 -64 7 -60 -4 -1980 -16 -2927
-4 -326 -6 -335 -78 -364 -79 -31 -436 -36 -446 -6 -2 6 -8 8 -13 5 -13 -8
-47 23 -67 61 -24 45 -28 193 -17 770 8 426 8 1068 1 1092 -8 26 -45 20 -47
-8 -2 -26 -3 -28 -22 -73 -9 -21 -17 -42 -17 -46 0 -4 -9 -28 -20 -54 -12 -25
-19 -48 -18 -50 2 -2 -4 -12 -13 -22 -9 -11 -19 -31 -23 -46 -3 -15 -11 -40
-18 -55 -6 -15 -12 -32 -13 -38 -1 -11 -11 -37 -28 -75 -12 -29 -12 -26 -21
-65 -4 -16 -11 -39 -15 -50 -30 -75 -55 -144 -87 -240 -40 -122 -99 -281 -114
-307 -6 -10 -10 -26 -10 -35 0 -10 -11 -42 -25 -70 -13 -29 -22 -53 -19 -53 3
0 -2 -10 -10 -22 -9 -12 -16 -30 -16 -40 0 -10 -4 -18 -8 -18 -5 0 -9 -6 -9
-12 0 -7 -14 -51 -32 -98 -18 -47 -44 -116 -59 -155 -14 -38 -33 -80 -41 -93
-27 -44 -88 -62 -216 -63 -179 -2 -182 0 -225 126 -17 50 -35 99 -40 110 -13
31 -23 59 -25 70 0 6 -4 17 -7 25 -14 41 -30 87 -33 100 -6 25 -62 182 -83
235 -11 28 -19 52 -19 55 1 3 -6 25 -15 50 -41 114 -118 360 -118 379 0 12 -4
21 -9 21 -8 0 -21 41 -27 89 -2 14 -8 36 -13 50 -5 14 -13 42 -17 61 -3 19
-10 41 -14 50 -26 52 -67 157 -75 190 -13 52 -43 152 -48 156 -3 3 -15 3 -26
-1 -21 -6 -21 -11 -20 -213 1 -114 1 -297 0 -407 0 -110 -1 -227 0 -260 0 -99
-11 -359 -17 -377 -3 -10 -1 -18 4 -18 6 0 8 -19 7 -42 -8 -87 -15 -256 -15
-353 -1 -127 -28 -225 -61 -225 -9 0 -29 -6 -44 -14 -22 -11 -70 -14 -230 -11
-112 2 -213 6 -225 10 -11 4 -33 25 -47 48 l-27 42 -4 280 c-2 154 -3 606 -2
1005 1 399 1 745 1 770 0 25 0 104 0 175 -1 229 2 310 10 327 6 10 5 19 -2 24
-8 4 -7 9 2 16 9 6 10 11 4 14 -6 2 -9 39 -8 92 6 191 11 327 13 332 1 3 3 19
4 35 4 66 19 135 32 146 8 6 14 18 14 25 0 31 55 37 360 41 308 4 390 -3 390
-32 0 -7 7 -15 15 -19 8 -3 14 -9 13 -13 -1 -4 9 -28 22 -53 13 -25 25 -52 26
-60 2 -8 7 -23 13 -35 9 -18 80 -227 86 -250 1 -5 5 -28 10 -50 4 -22 15 -50
23 -62 8 -13 11 -23 7 -23 -4 0 -2 -6 4 -13 6 -8 13 -24 15 -38 3 -13 5 -26 6
-29 2 -3 2 -8 1 -12 0 -3 16 -55 35 -115 20 -59 37 -117 39 -128 2 -11 8 -32
14 -47 6 -16 8 -28 5 -28 -3 0 -2 -6 3 -12 4 -7 8 -15 9 -18 0 -3 6 -18 12
-33 7 -16 12 -34 12 -40 0 -6 9 -34 19 -62 10 -27 36 -104 56 -170 20 -66 43
-135 51 -153 8 -18 14 -44 14 -57 0 -13 5 -27 10 -30 6 -3 10 -13 10 -22 0 -8
6 -29 14 -46 18 -42 51 -169 48 -184 -2 -7 2 -13 8 -13 6 0 10 -6 8 -12 -3
-18 33 -90 51 -105 17 -12 35 -7 26 8 -4 5 1 9 9 9 9 0 16 7 16 15 0 8 5 15
11 15 5 0 8 4 5 9 -3 5 1 14 9 21 8 7 15 19 15 26 0 8 4 22 9 32 5 9 14 29 20
45 6 15 15 37 20 50 5 12 15 40 22 62 7 22 18 54 25 70 6 17 19 53 27 80 8 28
21 64 28 80 7 17 13 33 14 38 2 4 4 10 5 15 1 4 2 10 1 14 -1 7 13 42 59 153
7 17 14 41 16 55 2 14 12 43 24 65 11 21 20 45 20 52 0 7 4 21 9 31 5 9 15 37
21 62 7 25 23 68 36 96 13 28 24 58 24 68 0 9 4 24 9 34 6 9 21 51 35 92 13
41 36 105 50 143 14 37 26 70 26 75 0 4 7 15 15 25 8 9 12 17 9 17 -4 0 1 11
10 25 9 13 16 29 16 34 0 6 11 34 24 63 13 29 32 78 41 108 34 108 92 186 143
192 15 2 153 4 308 5 l281 1 45 -28z m-7976 -5 c440 -3 860 -7 934 -10 74 -2
225 -6 334 -9 l199 -5 29 -28 c17 -15 35 -37 40 -48 10 -18 12 -235 3 -295
-16 -106 -18 -113 -47 -180 -40 -94 -59 -125 -215 -350 -36 -52 -68 -97 -72
-100 -3 -3 -17 -25 -30 -50 -13 -25 -30 -52 -37 -61 -8 -8 -14 -20 -14 -26 0
-5 -25 -45 -55 -87 -30 -42 -55 -81 -55 -86 0 -6 -4 -10 -10 -10 -5 0 -10 -5
-10 -11 0 -7 -16 -36 -35 -65 -19 -29 -35 -57 -35 -62 0 -6 -4 -12 -8 -14 -5
-1 -47 -62 -95 -134 -48 -72 -94 -137 -102 -144 -8 -7 -15 -18 -15 -24 -1 -6
-23 -42 -50 -81 -112 -158 -175 -250 -175 -256 0 -9 -69 -107 -136 -192 -60
-78 -98 -133 -149 -214 -17 -29 -36 -53 -42 -53 -5 0 -7 -4 -4 -9 3 -5 -10
-29 -30 -55 -19 -26 -34 -54 -32 -64 5 -25 92 -63 142 -62 184 4 1209 -1 1217
-6 6 -3 28 -7 50 -9 21 -2 45 -9 52 -17 21 -21 54 -120 48 -143 -2 -5 -4 -84
-6 -175 -1 -91 -3 -175 -4 -188 -1 -17 -12 -28 -44 -42 -41 -18 -90 -19 -1032
-25 -545 -3 -1055 -3 -1135 1 -143 7 -145 7 -172 36 -15 16 -27 36 -27 46 -2
43 -6 62 -12 62 -3 0 -4 19 -2 43 2 23 5 92 8 152 4 103 15 159 47 245 15 40
58 113 70 118 4 2 8 9 8 16 0 13 95 159 142 217 36 45 91 118 103 138 6 9 22
32 36 51 14 19 29 43 32 53 4 11 40 67 81 125 40 59 86 131 101 160 16 30 43
70 62 89 18 20 33 38 33 41 0 5 45 72 133 199 31 46 57 86 57 89 0 3 20 31 44
62 24 32 63 89 87 127 24 39 65 100 91 138 26 37 48 70 48 73 0 3 14 23 30 44
17 21 30 42 30 48 0 5 7 16 16 23 9 8 27 30 40 49 13 19 37 53 53 75 45 60 83
141 79 166 -2 18 -15 26 -63 39 -37 11 -68 14 -82 9 -12 -4 -37 -3 -57 2 -20
6 -41 7 -46 4 -6 -4 -271 -6 -590 -6 -510 1 -586 3 -631 17 -76 25 -83 44 -84
242 -1 90 2 165 7 168 5 3 5 10 2 16 -3 5 -8 31 -9 56 -4 59 22 120 53 128 13
4 20 9 17 12 -10 11 69 41 81 31 7 -6 332 -11 810 -14z"/>
<path d="M5609 6450 c-79 -9 -107 -22 -119 -55 -9 -25 -6 -137 4 -153 3 -5 2
-12 -1 -16 -9 -9 -10 -24 -18 -243 -7 -233 -1 -264 57 -288 59 -23 390 -23
429 0 5 4 20 8 33 11 29 5 107 41 161 73 89 54 141 140 150 247 3 38 8 81 11
97 4 16 2 27 -4 27 -6 0 -16 19 -23 42 -26 100 -115 184 -241 230 -75 27 -96
30 -228 32 -80 2 -175 0 -211 -4z"/>
<path d="M5541 5112 c-34 -5 -62 -35 -70 -74 -3 -18 -6 -94 -4 -168 1 -74 3
-237 4 -362 l3 -228 25 -22 c25 -22 33 -23 245 -25 121 -1 224 1 230 6 6 5 36
11 66 14 62 7 127 38 207 97 130 99 186 274 141 447 -24 94 -36 114 -111 185
-76 71 -150 108 -242 119 -73 9 -452 18 -494 11z"/>
</g>
</svg>
